<svg width="60" height="60" viewBox="0 0 60 60" fill="none" xmlns="http://www.w3.org/2000/svg">
<path d="M31.0877 30L51.7397 9.324C51.8831 9.17908 51.9636 8.98341 51.9636 8.7795C51.9636 8.57559 51.8831 8.37992 51.7397 8.235C51.5927 8.09482 51.3972 8.01675 51.1941 8.01703C50.991 8.01731 50.7958 8.09592 50.6492 8.2365L30.0002 28.911L9.34817 8.235C9.20108 8.09574 9.00622 8.01813 8.80367 8.01813C8.60112 8.01813 8.40626 8.09574 8.25917 8.235C8.11581 8.37966 8.03539 8.57508 8.03539 8.77875C8.03539 8.98241 8.11581 9.17783 8.25917 9.3225L28.9127 30L8.26067 50.676C8.18489 50.7464 8.12407 50.8313 8.08187 50.9258C8.03966 51.0202 8.01693 51.1222 8.01502 51.2256C8.01312 51.329 8.03208 51.4318 8.07079 51.5277C8.10949 51.6236 8.16713 51.7108 8.24027 51.7839C8.31341 51.857 8.40055 51.9147 8.49647 51.9534C8.5924 51.9921 8.69514 52.011 8.79856 52.0091C8.90197 52.0072 9.00395 51.9845 9.09838 51.9423C9.19281 51.9001 9.27777 51.8393 9.34817 51.7635L30.0002 31.089L50.6507 51.765C50.7221 51.8365 50.8069 51.8932 50.9002 51.932C50.9935 51.9707 51.0936 51.9907 51.1946 51.9908C51.2957 51.9908 51.3958 51.971 51.4892 51.9324C51.5825 51.8938 51.6674 51.8372 51.7389 51.7657C51.8104 51.6943 51.8672 51.6096 51.9059 51.5162C51.9446 51.4229 51.9646 51.3228 51.9647 51.2218C51.9647 51.1207 51.9449 51.0206 51.9063 50.9273C51.8677 50.8339 51.8111 50.749 51.7397 50.6775L31.0877 30Z" fill="black"/>
</svg>
