<svg width="64" height="67" viewBox="0 0 64 67" fill="none" xmlns="http://www.w3.org/2000/svg">
<path d="M58 16.6388C56.0875 17.5024 54.0063 18.124 51.8625 18.3661C54.0882 16.9819 55.755 14.795 56.55 12.2157C54.4615 13.5164 52.1735 14.4284 49.7875 14.9114C48.7903 13.7954 47.5842 12.9063 46.2444 12.2995C44.9046 11.6928 43.4598 11.3814 42 11.3848C36.0938 11.3848 31.3438 16.3967 31.3438 22.5471C31.3438 23.4107 31.4438 24.2744 31.6063 25.1054C22.7625 24.6212 14.875 20.1981 9.63127 13.4262C8.67581 15.1346 8.17511 17.0799 8.18127 19.0597C8.18127 22.9331 10.0625 26.3485 12.9313 28.3572C11.2407 28.2875 9.58967 27.8011 8.11252 26.9374V27.0748C8.11252 32.4989 11.775 36.9939 16.6563 38.0277C15.7398 38.277 14.7969 38.4045 13.85 38.4072C13.1563 38.4072 12.5 38.3352 11.8375 38.2371C13.1875 42.6602 17.1188 45.8727 21.8 45.9774C18.1375 48.9807 13.55 50.7473 8.56877 50.7473C7.67502 50.7473 6.85002 50.7145 5.99377 50.6099C10.7188 53.7832 16.325 55.6152 22.3625 55.6152C41.9625 55.6152 52.6875 38.6166 52.6875 23.8622C52.6875 23.378 52.6875 22.8938 52.6563 22.4097C54.7313 20.8197 56.55 18.8503 58 16.6388Z" fill="black"/>
</svg>
